<svg xmlns="http://www.w3.org/2000/svg" viewBox="0 0 512 512">
  <!-- Running Man Icon -->
  <path fill="#007bff" d="M255.03 88c17.67 0 32-14.33 32-32s-14.33-32-32-32-32 14.33-32 32 14.33 32 32 32zM435.31 192.51l-96.69-14.15c-15.68-2.31-31.59 4.36-40.4 17.5l-26.69 39.95 24.51 24.51c11.16 11.16 18.06 25.86 19.38 41.7l6.81 81.33c.83 9.94 10 17.15 19.94 16.32s17.15-10 16.32-19.94l-6.81-81.33c-.22-2.61-1.35-5.02-3.17-6.83l-18.77-18.77 15.65-23.41 55.43 8.11c10.74 1.57 20.35-5.91 21.92-16.65s-5.91-20.35-16.65-21.92zM151.05 145.47l-16.19-24.28c-8.81-13.13-24.71-19.8-40.4-17.5L0 117.8c-10.74 1.57-18.22 11.18-16.65 21.92s11.18 18.22 21.92 16.65l77.77-11.39 18.72 28.08c10.45 15.68 14.28 34.62 10.79 53.07l-20.36 107.56c-1.85 9.79 4.7 19.22 14.49 21.07 9.79 1.85 19.22-4.7 21.07-14.49l20.36-107.56c.58-3.08-.06-6.24-1.8-8.84l-14.73-21.92zM286.03 260.67l-28.52-28.52c-15.34-15.34-36.14-23.36-57.51-22.13l-45.98 2.65c-1.74.1-3.46.36-5.14.78l17.72 26.58c14.24-.76 28.2 4.41 38.45 14.41l32.32 32.32c12.5 12.5 12.5 32.76 0 45.26l-78.61 78.61c-6.12 6.12-6.12 16.05 0 22.17 6.12 6.12 16.05 6.12 22.17 0l78.61-78.61c24.75-24.75 24.75-64.88 0-89.63zM218.03 400.67l-64 64c-6.25 6.25-6.25 16.38 0 22.63 6.25 6.25 16.38 6.25 22.63 0l64-64c6.25-6.25 6.25-16.38 0-22.63-6.25-6.25-16.38-6.25-22.63 0z"/>
</svg>
